<?xml version="1.0" encoding="utf-8" ?><svg xmlns="http://www.w3.org/2000/svg"
  xmlns:xlink="http://www.w3.org/1999/xlink" width="460" height="307" viewBox="0 0 460 307">
  <path fill="#F04D04" transform="scale(0.36859 0.36899)"
    d="M595.812 140.61C605.41 127.023 611.948 110.326 622.405 97.3627C626.366 92.4527 635.537 91.2203 639.678 95.445C651.19 107.19 658.946 127.374 668.522 140.468C672.033 140.858 676.313 141.452 679.784 141.56C687.652 132.735 705.646 110.55 713.557 104.798C716.007 103.016 718.998 101.689 722.058 101.578C724.978 101.471 727.54 102.882 729.567 104.884C736.543 111.776 746.144 145.36 750.75 156.606L761.309 160.138C774.926 150.794 787.268 139.443 801.326 130.954C806.611 127.762 815.707 129.42 818.174 135.378C824.819 151.421 823.839 171.674 828.355 188.468C831.887 190.836 834.294 192.493 838.148 194.39C849.171 189.807 894.356 162.126 898.266 180.912C901.475 196.334 898.62 219.843 898.863 236.369C901.771 239.01 904.71 241.788 907.829 244.16C919.252 241.279 943.826 233.82 953.994 233.202C957.217 233.006 960.719 233.366 963.592 234.947C966.3 236.437 967.762 238.909 968.474 241.849C970.904 251.884 961.009 285.004 958.997 297.666C961.204 300.656 963.438 303.775 965.769 306.656C974.649 306.395 986.215 306.652 994.911 305.682C1053.04 299.195 1013.53 340.951 1006.04 369.518C1007.82 372.847 1009.63 376.361 1011.52 379.616C1021.93 381.676 1032.04 383.163 1043.04 385.134C1054.43 387.174 1071.97 387.622 1067.77 405.039C1065.66 413.819 1056.52 422.873 1052.03 430.613C1048 436.888 1042.96 443.07 1038.86 449.44L1040.96 456.264C1053.57 446.42 1073.64 430.278 1083.58 417.65C1085.24 415.544 1090.88 401.471 1093.81 396.692C1051.23 348.169 1041.19 290.025 1093.91 244.449C1110.07 230.477 1136.55 213.537 1156.73 206.207C1141.23 243.598 1145.39 289.288 1145.62 328.778C1186.56 307.988 1206.14 267.149 1213.14 223.416C1228.46 243.202 1234.73 273.83 1231.48 298.351C1224.72 348.475 1184.53 387.022 1143.88 413.016C1137.54 417.076 1130.85 420.301 1126.58 426.689C1112.34 448 1095.64 465.368 1076.86 482.754C1092.41 496.231 1111.54 507.271 1126.38 521.329C1130.38 525.112 1128.82 537.801 1126.38 542.152C1118.37 558.364 1107.44 573.557 1097.3 588.543C1073.85 623.215 1049.62 657.445 1025.01 691.297C1020.14 697.985 1004.3 726.874 999.302 729.221L998.33 728.672C997.369 725.194 998.716 719.658 999.32 716.007C1004.18 686.641 1016.63 664.971 1028.23 638.774C1036.74 619.416 1044.26 599.638 1050.76 579.515C1054.18 568.606 1058.22 554.79 1058.17 543.368C1056.81 541.988 1051.9 537.148 1049.89 537.344C1047.48 543.501 1035.59 561.209 1031.58 567.231C1017.53 588.344 1003.18 609.253 988.529 629.951C980.271 641.793 972.908 653.503 965.391 665.797C964.169 667.796 962.706 670.227 960.479 670.704C956.837 660.776 991.694 592.207 997.431 578.335C1003.08 564.676 1009.25 549.612 1013.6 534.856C979.152 559.209 936.899 576.807 896.5 588.699C857.796 599.962 818.243 608.071 778.23 612.946C635.438 630.552 410.716 620.044 283.088 550.423C296.492 588.064 323.305 620.552 336.009 658.361C337.143 661.737 339.048 666.425 339.166 669.872L338.539 670.273C335.183 668.73 320.923 647.615 317.039 642.914C293.924 614.945 270.472 587.063 248.42 558.254C243.196 551.428 237.459 542.749 234.195 534.791C232.099 535.598 223.587 543.848 223.358 545.49C221.909 555.922 236.585 582.599 241.318 591.401C249.932 607.184 259.212 622.595 269.135 637.59C285.51 662.292 316.086 699.814 318.661 730.183C304.778 719.94 295.077 705.07 283.081 693.247L200.65 611.933C188.63 599.877 176.458 587.837 164.813 575.302C157.66 567.603 148.492 556.882 146.452 546.239C146.064 544.211 146.245 540.691 146.308 538.543C149.154 533.431 152.727 529.926 156.662 525.711C166.514 515.153 176.615 504.801 186.422 494.205C155.173 476.547 126.712 457.938 111.077 424.858C103.742 419.88 93.7501 416.375 85.9461 411.554C58.0837 394.345 27.0364 371.626 19.5747 337.678C12.5321 305.464 34.0409 270.671 59.2368 252.061C66.5542 294.087 82.9501 330.944 118.166 357.11C113.117 314.751 105.719 270.867 99.815 228.413C187.984 266.689 220.141 341.084 157.441 420.835C171.493 439.049 196.206 452.505 217.398 460.165C220.667 456.728 223.668 453.591 226.707 449.932C219.226 438.249 203.414 419.501 198.505 407.86C197.247 404.878 196.483 401.152 197.123 397.939C197.793 394.577 199.892 392.089 202.715 390.291C209.583 385.915 243.134 381.288 253.096 380.092C255.129 376.85 257.113 373.577 259.047 370.274C254.207 354.104 243.312 338.118 239.105 321.646C237.675 316.047 240.985 306.741 247.419 306.086C264.195 304.377 281.818 306.364 298.769 306.761L306.093 298.386C304.116 288.619 302.014 278.877 299.788 269.164C293.951 243.239 289.694 226.579 324.548 235.985C335.038 238.816 346.819 241.57 357.489 244.168C360.234 241.718 363.44 238.994 366.038 236.449C365.578 226.096 365.187 215.739 364.865 205.381C364.658 199.246 363.955 192.628 364.731 186.54C365.154 183.217 366.076 179.458 368.291 176.842C370.245 174.534 373.025 173.76 375.941 173.653C387.627 173.225 413.565 189.599 425.87 194.53C429.004 192.833 433.134 190.747 436.051 188.85C439.45 172.815 440.385 155.462 444.209 139.583C446.441 130.319 453.592 129.42 462.019 129.873C471.387 135.55 493.201 152.854 502.433 160.031C505.505 159.109 510.485 157.778 513.324 156.628L513.665 155.961C519.29 144.786 527.62 105.761 539.153 101.808C542.155 100.779 545.634 101.946 548.312 103.395C555.952 107.529 577.837 133.793 584.763 141.898C588.448 141.489 592.132 141.059 595.812 140.61Z" />
  <path fill="#A52E00" transform="scale(0.36859 0.36899)"
    d="M251.705 524.556C298.729 545.746 357.842 563.232 407.564 575.25C577.341 616.285 762.334 617.124 927.333 554.643C939.123 550.163 950.785 545.352 962.304 540.214C976.391 534.022 990.271 526.751 1005.97 526.038C1019.14 525.439 1039.49 528.942 1049.89 537.344C1047.48 543.501 1035.59 561.209 1031.58 567.231C1017.53 588.344 1003.18 609.253 988.529 629.951C980.271 641.793 972.908 653.503 965.391 665.797C964.169 667.796 962.706 670.227 960.479 670.704C956.837 660.776 991.694 592.207 997.431 578.335C1003.08 564.676 1009.25 549.612 1013.6 534.856C979.152 559.209 936.899 576.807 896.5 588.699C857.796 599.962 818.243 608.071 778.23 612.946C635.438 630.552 410.716 620.044 283.088 550.423C296.492 588.064 323.305 620.552 336.009 658.361C337.143 661.737 339.048 666.425 339.166 669.872L338.539 670.273C335.183 668.73 320.923 647.615 317.039 642.914C293.924 614.945 270.472 587.063 248.42 558.254C243.196 551.428 237.459 542.749 234.195 534.791C235.911 531.879 248.309 525.876 251.705 524.556Z" />
  <defs>
    <linearGradient id="gradient_0" gradientUnits="userSpaceOnUse" x1="631.50397" y1="545.67236" x2="635.72729"
      y2="289.23734">
      <stop offset="0" stop-color="#054B76" />
      <stop offset="1" stop-color="#0371B6" />
    </linearGradient>
  </defs>
  <path fill="url(#gradient_0)" transform="scale(0.36859 0.36899)"
    d="M303.73 357.269C312.842 320.174 331.278 301.887 369.904 294.811C421.513 285.356 470.939 301.375 521.233 310.291C549.175 315.245 577.172 319.31 605.525 320.849C646.495 323.568 685.968 319.21 726.429 313.179C784.732 304.488 844.397 282.558 903.529 296.528C937.863 304.639 953.758 323.963 961.954 356.98C995.979 366.65 998.399 373.646 998.903 409.279C999.299 437.279 994.295 454.174 962.755 459.301C958.054 482.984 950.351 506.559 928.316 519.552C870.826 553.449 753.379 553.714 698.979 516.007C698.706 515.985 698.433 515.962 698.16 515.94C678.461 509.269 660.557 503.487 639.655 501.667C612.992 499.345 590.768 509.692 566.112 516.474C511.438 553.582 394.312 553.595 336.998 519.201C315.328 506.197 307.785 482.584 303.11 459.136C296.679 457.183 289.744 455.497 283.786 452.468C266.901 443.527 267.238 424.089 267.17 407.853C267.031 374.642 272.069 365.748 303.73 357.269Z" />
  <path fill="#03466F" transform="scale(0.36859 0.36899)"
    d="M303.73 357.269C298.526 399.133 299.066 417.492 303.11 459.136C296.679 457.183 289.744 455.497 283.786 452.468C266.901 443.527 267.238 424.089 267.17 407.853C267.031 374.642 272.069 365.748 303.73 357.269Z" />
  <path fill="#03466F" transform="scale(0.36859 0.36899)"
    d="M961.954 356.98C995.979 366.65 998.399 373.646 998.903 409.279C999.299 437.279 994.295 454.174 962.755 459.301C964.288 451.48 963.667 441.166 965.37 433.154C965.98 430.288 966.391 430.431 968.604 429.024C965.55 418.33 965.854 400.476 968.188 389.569C964.412 387.875 964.839 383.913 964.658 380.145C964.278 372.219 963.287 364.792 961.954 356.98Z" />
  <path fill="white" transform="scale(0.36859 0.36899)"
    d="M968.188 389.569C969.305 386.473 971.488 381.633 974.643 380.643C988.336 376.342 989.025 400.164 988.98 407.966C988.919 418.45 988.997 432.348 979.18 438.017C974.869 440.34 969.855 432.28 968.604 429.024C965.55 418.33 965.854 400.476 968.188 389.569Z" />
  <path fill="white" transform="scale(0.36859 0.36899)"
    d="M566.112 516.474C570.135 512.675 574.974 509.072 578.759 504.906C593.413 488.775 606.241 474.082 630.032 473.007C655.341 471.863 669.66 485.911 685.194 503.104C688.34 506.585 695.232 512.655 698.979 516.007C698.706 515.985 698.433 515.962 698.16 515.94C678.461 509.269 660.557 503.487 639.655 501.667C612.992 499.345 590.768 509.692 566.112 516.474Z" />
  <path fill="#A0F8FD" transform="scale(0.36859 0.36899)"
    d="M401.53 317.238C469.622 316.238 539.932 343.297 609.268 344.18C654.922 344.761 695.61 343.055 740.669 333.89C772.787 328.702 804.997 320.054 837.495 317.782C895.809 313.704 933.201 327.278 935.696 391.41C939.616 492.182 920.165 516.321 821.589 522.051C785.451 523.884 737.556 522.225 708.041 498.852C696.413 489.644 688.481 477.327 676.085 468.271C645.946 446.254 603.735 451.302 578.328 478.072C567.905 489.179 557.863 500.551 544.116 507.714C518.208 521.214 482.254 523.116 453.501 522.439C421.311 521.681 379.345 519.683 354.034 497.877C334.566 481.107 330.832 448.756 329.684 424.637C328.488 366.148 332.917 320.388 401.53 317.238Z" />
  <defs>
    <linearGradient id="gradient_1" gradientUnits="userSpaceOnUse" x1="633.65375" y1="512.93933" x2="632.31445"
      y2="391.82507">
      <stop offset="0" stop-color="#08507D" />
      <stop offset="1" stop-color="#087DC5" />
    </linearGradient>
  </defs>
  <path fill="url(#gradient_1)" transform="scale(0.36859 0.36899)"
    d="M339.931 393.655C339.973 378.681 344.718 355.809 354.794 344.413C381.939 313.713 455.82 331.095 491.63 337.987C509.455 341.601 527.377 344.721 545.375 347.343C581.012 352.499 611.812 355.209 648.096 354.146C687.958 352.978 723.507 347.414 762.434 340.047C788.524 335.38 813.858 329.284 840.385 327.588C886.367 324.65 922.875 331.838 925.075 386.268C926.424 394.352 926.475 404.035 926.324 412.347C925.9 435.623 925.332 463.558 911.54 483.369C899.637 500.465 877.818 505.942 858.477 509.015C824.355 513.689 772.211 515.677 739.647 505.055C731.538 502.43 723.898 498.531 717.014 493.505C706.512 485.85 701.457 478.155 692.5 469.355C673.404 450.311 646.398 441.474 619.741 445.547C600.948 448.433 584.279 458.111 571.053 471.583C560.529 482.303 551.807 492.736 538.249 499.893C503.069 518.465 397.635 518.002 364.927 494.347C350.277 483.752 344.442 466.058 341.777 448.907C339.4 433.602 337.718 409.123 339.931 393.655Z" />
  <path fill="#057CC3" transform="scale(0.36859 0.36899)"
    d="M339.931 393.655C339.973 378.681 344.718 355.809 354.794 344.413C381.939 313.713 455.82 331.095 491.63 337.987C509.455 341.601 527.377 344.721 545.375 347.343C581.012 352.499 611.812 355.209 648.096 354.146C687.958 352.978 723.507 347.414 762.434 340.047C788.524 335.38 813.858 329.284 840.385 327.588C886.367 324.65 922.875 331.838 925.075 386.268L925 386.971C924.521 391.728 924.703 398.382 924.726 403.317C922.252 403.182 922.742 402.819 921.892 402.658C916.975 401.728 910.479 402.881 905.104 402.269C900.763 401.775 896.807 400.864 892.996 400.543C882.131 399.629 871.266 399.225 860.407 398.511C853.594 398.063 846.807 398.567 840.082 398.252C835.027 398.015 831.152 396.326 825.529 396.388C817.515 396.478 809.756 397.079 801.772 397.275C782.403 397.749 763.049 397.553 743.68 396.992C740.289 396.894 735.69 395.494 731.481 395.327C724.071 395.032 716.236 395.514 708.816 395.367C708.56 395.361 705.796 393.772 705.812 393.772C693.622 393.721 681.546 394.957 669.413 395.717C667.745 395.821 662.908 393.61 660.612 393.461C657.275 393.245 654.177 393.378 650.9 393.224C643.857 392.894 636.806 392.375 629.771 392.283C611.639 392.045 595.55 394.7 577.763 396.114C574.001 396.413 569.025 397.68 564.886 398.162C559.094 398.836 552.437 397.523 547.376 397.757C537.428 398.217 529.106 397.786 519.238 397.424C517.77 398.762 517.859 399.209 516.116 399.02C512.725 398.651 509.19 398.031 505.823 397.489L505.249 395.997L504.346 395.774L502.598 397.688C476.824 397.094 450.64 402.011 424.652 401.413C422.375 401.36 418.52 402.888 415.933 402.769C397.543 401.923 379.814 399.537 361.318 401.399C349.124 402.626 341.641 411.865 339.931 393.655Z" />
  <path transform="scale(0.36859 0.36899)"
    d="M588.755 539.295C593.078 539.889 600.466 546.653 604.77 549.419C626.123 563.148 657.148 562.515 678.454 548.871C681.947 547.619 688.704 539.495 691.984 539.603C701.11 539.903 700.849 546.753 696.111 551.566C694.069 553.376 691.268 555.374 688.983 556.939C670.219 569.599 647.17 574.222 624.976 569.777C615.728 568.001 568.337 551.691 588.755 539.295Z" />
</svg>