<?xml version="1.0" encoding="UTF-8" standalone="no"?>
<!DOCTYPE svg PUBLIC "-//W3C//DTD SVG 1.1//EN" "http://www.w3.org/Graphics/SVG/1.1/DTD/svg11.dtd">
<svg width="100%" height="100%" viewBox="0 0 256 256" version="1.1" xmlns="http://www.w3.org/2000/svg" xmlns:xlink="http://www.w3.org/1999/xlink" xml:space="preserve" xmlns:serif="http://www.serif.com/" style="fill-rule:evenodd;clip-rule:evenodd;stroke-linejoin:round;stroke-miterlimit:2;">
    <g id="Layer1">
        <path d="M138.445,20.506L141.886,37.256C148.544,38.275 155.071,40.024 161.346,42.471L172.701,29.685C179.055,32.574 185.114,36.072 190.793,40.13L185.397,56.356C190.654,60.568 195.432,65.346 199.644,70.603L215.87,65.207C219.928,70.886 223.426,76.945 226.315,83.299L213.529,94.654C215.976,100.929 217.725,107.456 218.744,114.114L235.494,117.555C236.169,124.502 236.169,131.498 235.494,138.445L218.744,141.886C217.725,148.544 215.976,155.071 213.529,161.346L226.315,172.701C223.426,179.055 219.928,185.114 215.87,190.793L199.644,185.397C195.432,190.654 190.654,195.432 185.397,199.644L190.793,215.87C185.114,219.928 179.055,223.426 172.701,226.315L161.346,213.529C155.071,215.976 148.544,217.725 141.886,218.744L138.445,235.494C131.498,236.169 124.502,236.169 117.555,235.494L114.114,218.744C107.456,217.725 100.929,215.976 94.654,213.529L83.299,226.315C76.945,223.426 70.886,219.928 65.207,215.87L70.603,199.644C65.346,195.432 60.568,190.654 56.356,185.397L40.13,190.793C36.072,185.114 32.574,179.055 29.685,172.701L42.471,161.346C40.024,155.071 38.275,148.544 37.256,141.886L20.506,138.445C19.831,131.498 19.831,124.502 20.506,117.555L37.256,114.114C38.275,107.456 40.024,100.929 42.471,94.654L29.685,83.299C32.574,76.945 36.072,70.886 40.13,65.207L56.356,70.603C60.568,65.346 65.346,60.568 70.603,56.356L65.207,40.13C70.886,36.072 76.945,32.574 83.299,29.685L94.654,42.471C100.929,40.024 107.456,38.275 114.114,37.256L117.555,20.506C124.502,19.831 131.498,19.831 138.445,20.506ZM128,68.076C161.073,68.076 187.924,94.927 187.924,128C187.924,161.073 161.073,187.924 128,187.924C94.927,187.924 68.076,161.073 68.076,128C68.076,94.927 94.927,68.076 128,68.076Z" style="fill:rgb(235,235,235);"/>
    </g>
</svg>
