<?xml version="1.0" encoding="UTF-8" standalone="no"?>
<!DOCTYPE svg PUBLIC "-//W3C//DTD SVG 1.1//EN" "http://www.w3.org/Graphics/SVG/1.1/DTD/svg11.dtd">
<svg width="100%" height="100%" viewBox="0 0 256 256" version="1.1" xmlns="http://www.w3.org/2000/svg" xmlns:xlink="http://www.w3.org/1999/xlink" xml:space="preserve" xmlns:serif="http://www.serif.com/" style="fill-rule:evenodd;clip-rule:evenodd;stroke-linejoin:round;stroke-miterlimit:2;">
    <g id="Layer1">
        <path d="M224,104L224,152L32,152L32,104L224,104ZM208,120C203.585,120 200,123.585 200,128C200,132.415 203.585,136 208,136C212.415,136 216,132.415 216,128C216,123.585 212.415,120 208,120ZM184,120L48,120L48,136L184,136L184,120Z" style="fill:rgb(235,235,235);"/>
        <g transform="matrix(1,0,0,1,0,-60)">
            <path d="M224,104L224,152L32,152L32,104L224,104ZM208,120C203.585,120 200,123.585 200,128C200,132.415 203.585,136 208,136C212.415,136 216,132.415 216,128C216,123.585 212.415,120 208,120ZM184,120L48,120L48,136L184,136L184,120Z" style="fill:rgb(235,235,235);"/>
        </g>
        <g transform="matrix(1,0,0,1,0,60)">
            <path d="M224,104L224,152L32,152L32,104L224,104ZM208,120C203.585,120 200,123.585 200,128C200,132.415 203.585,136 208,136C212.415,136 216,132.415 216,128C216,123.585 212.415,120 208,120ZM184,120L48,120L48,136L184,136L184,120Z" style="fill:rgb(235,235,235);"/>
        </g>
    </g>
</svg>
